<svg xmlns:dc="http://purl.org/dc/elements/1.1/" xmlns:cc="http://creativecommons.org/ns#" xmlns:rdf="http://www.w3.org/1999/02/22-rdf-syntax-ns#" xmlns:svg="http://www.w3.org/2000/svg" xmlns="http://www.w3.org/2000/svg" xmlns:sodipodi="http://sodipodi.sourceforge.net/DTD/sodipodi-0.dtd" xmlns:inkscape="http://www.inkscape.org/namespaces/inkscape" version="1.1" x="0px" y="0px" viewBox="0 0 100 125"><g transform="translate(0,-952.36218)"><path style="font-size:medium;font-style:normal;font-variant:normal;font-weight:normal;font-stretch:normal;text-indent:0;text-align:start;text-decoration:none;line-height:normal;letter-spacing:normal;word-spacing:normal;text-transform:none;direction:ltr;block-progression:tb;writing-mode:lr-tb;text-anchor:start;baseline-shift:baseline;opacity:1;color:#000000;fill:#000000;fill-opacity:1;stroke:none;stroke-width:1.99999975999999990;marker:none;visibility:visible;display:inline;overflow:visible;enable-background:accumulate;font-family:Sans;-inkscape-font-specification:Sans" d="M 31.875 22.96875 A 1.0000999 1.0000999 0 0 0 31 24 L 31 28 L 20 28 C 17.247299 28 15 30.2473 15 33 L 15 72 C 15 74.7527 17.247299 77 20 77 L 80 77 C 82.752701 77 85 74.7527 85 72 L 85 33 C 85 30.2473 82.752701 28 80 28 L 69 28 L 69 24 A 1.0000999 1.0000999 0 0 0 67.875 22.96875 A 1.0000999 1.0000999 0 0 0 67 24 L 67 28 L 33 28 L 33 24 A 1.0000999 1.0000999 0 0 0 31.875 22.96875 z M 20 30 L 31 30 L 31 34 A 1.0000999 1.0000999 0 1 0 33 34 L 33 30 L 67 30 L 67 34 A 1.0000999 1.0000999 0 1 0 69 34 L 69 30 L 80 30 C 81.679296 30 83 31.3207 83 33 L 83 40 L 17 40 L 17 33 C 17 31.3207 18.320704 30 20 30 z M 17 42 L 83 42 L 83 72 C 83 73.6793 81.679296 75 80 75 L 20 75 C 18.320704 75 17 73.6793 17 72 L 17 42 z M 38 48 C 35.801297 48 34 49.8013 34 52 C 34 54.1987 35.801297 56 38 56 C 40.198703 56 42 54.1987 42 52 C 42 49.8013 40.198703 48 38 48 z M 50 48 C 47.801297 48 46 49.8013 46 52 C 46 54.1987 47.801297 56 50 56 C 52.198703 56 54 54.1987 54 52 C 54 49.8013 52.198703 48 50 48 z M 62 48 C 59.801297 48 58 49.8013 58 52 C 58 54.1987 59.801297 56 62 56 C 64.198703 56 66 54.1987 66 52 C 66 49.8013 64.198703 48 62 48 z M 74 48 C 71.801297 48 70 49.8013 70 52 C 70 54.1987 71.801297 56 74 56 C 76.198703 56 78 54.1987 78 52 C 78 49.8013 76.198703 48 74 48 z M 38 50 C 39.125297 50 40 50.8747 40 52 C 40 53.1253 39.125297 54 38 54 C 36.874703 54 36 53.1253 36 52 C 36 50.8747 36.874703 50 38 50 z M 50 50 C 51.125297 50 52 50.8747 52 52 C 52 53.1253 51.125297 54 50 54 C 48.874703 54 48 53.1253 48 52 C 48 50.8747 48.874703 50 50 50 z M 62 50 C 63.125297 50 64 50.8747 64 52 C 64 53.1253 63.125297 54 62 54 C 60.874703 54 60 53.1253 60 52 C 60 50.8747 60.874703 50 62 50 z M 74 50 C 75.125297 50 76 50.8747 76 52 C 76 53.1253 75.125297 54 74 54 C 72.874703 54 72 53.1253 72 52 C 72 50.8747 72.874703 50 74 50 z M 26 61 C 23.801297 61 22 62.8013 22 65 C 22 67.1987 23.801297 69 26 69 C 28.198703 69 30 67.1987 30 65 C 30 62.8013 28.198703 61 26 61 z M 38 61 C 35.801297 61 34 62.8013 34 65 C 34 67.1987 35.801297 69 38 69 C 40.198703 69 42 67.1987 42 65 C 42 62.8013 40.198703 61 38 61 z M 50 61 C 47.801297 61 46 62.8013 46 65 C 46 67.1987 47.801297 69 50 69 C 52.198703 69 54 67.1987 54 65 C 54 62.8013 52.198703 61 50 61 z M 62 61 C 59.801297 61 58 62.8013 58 65 C 58 67.1987 59.801297 69 62 69 C 64.198703 69 66 67.1987 66 65 C 66 62.8013 64.198703 61 62 61 z M 26 63 C 27.125297 63 28 63.8747 28 65 C 28 66.1253 27.125297 67 26 67 C 24.874703 67 24 66.1253 24 65 C 24 63.8747 24.874703 63 26 63 z M 38 63 C 39.125297 63 40 63.8747 40 65 C 40 66.1253 39.125297 67 38 67 C 36.874703 67 36 66.1253 36 65 C 36 63.8747 36.874703 63 38 63 z M 50 63 C 51.125297 63 52 63.8747 52 65 C 52 66.1253 51.125297 67 50 67 C 48.874703 67 48 66.1253 48 65 C 48 63.8747 48.874703 63 50 63 z M 62 63 C 63.125297 63 64 63.8747 64 65 C 64 66.1253 63.125297 67 62 67 C 60.874703 67 60 66.1253 60 65 C 60 63.8747 60.874703 63 62 63 z " transform="translate(0,952.36218)"/></g><text x="0" y="115" fill="#000000" font-size="5px" font-weight="bold" font-family="'Helvetica Neue', Helvetica, Arial-Unicode, Arial, Sans-serif">Created by amy morgan</text><text x="0" y="120" fill="#000000" font-size="5px" font-weight="bold" font-family="'Helvetica Neue', Helvetica, Arial-Unicode, Arial, Sans-serif">from the Noun Project</text></svg>